<mxfile host="app.diagrams.net" modified="2023-07-13T12:23:10.298Z" agent="Mozilla/5.0 (Windows NT 10.0; Win64; x64) AppleWebKit/537.36 (KHTML, like Gecko) Chrome/114.0.0.0 Safari/537.36 Edg/114.0.1823.79" version="21.5.2" etag="vNW-0bM-Tlbu12KsH6Xv" type="github">
  <diagram name="Page-1" id="2tTZSiHK8Q8oS2EFRTSw">
    <mxGraphModel>
      <root>
        <mxCell id="0" />
        <mxCell id="1" parent="0" />
      </root>
    </mxGraphModel>
  </diagram>
</mxfile>
